# xmcd CD database file
#
# Track frame offsets:
#	150
#	20700
#	38057
#	64712
#	88507
#	116405
#	135650
#	155912
#
# Disc length: 2380 seconds
#
# Revision: 0
# Processed by: cddbd v1.5.2PL0 Copyright (c) Steve Scherf et al.
# Submitted via: CDex 1.70beta1
#
DISCID=66094a08
DTITLE=今田勝 - AZURE
DYEAR=1988
DGENRE=Jazz
TTITLE0=WAVY LAND
TTITLE1=ALMACENISTA
TTITLE2=AZURE
TTITLE3=MYSTERIOUS JUNGLE
TTITLE4=BOARD STREET
TTITLE5=SEA GULL
TTITLE6=FUNNY BEAST
TTITLE7=WALKING IN THE MIST
EXTD=YEAR: 1988
EXTT0=
EXTT1=
EXTT2=
EXTT3=
EXTT4=
EXTT5=
EXTT6=
EXTT7=
PLAYORDER=
